<?xml version="1.0" encoding="UTF-8"?>
<svg id="Media_Kit" data-name="Media Kit" xmlns="http://www.w3.org/2000/svg" viewBox="0 0 300 300">
  <defs>
    <style>
      .cls-1 {
        fill: #faafe7;
      }

      .cls-1, .cls-2 {
        stroke-width: 0px;
      }

      .cls-2 {
        fill: #4545fa;
      }
    </style>
  </defs>
  <path class="cls-2" d="M150,0C67.15,0,0,67.16,0,150s67.15,150,150,150,150-67.16,150-150S232.85,0,150,0Z"/>
  <g>
    <path class="cls-1" d="M150,30c-66.27,0-120,53.73-120,120s53.73,120,120,120,120-53.73,120-120S216.27,30,150,30ZM150,255.32c-61.77,0-111.84-49.43-111.84-110.42s50.07-110.42,111.84-110.42,111.84,49.43,111.84,110.42c0,60.98-50.07,110.42-111.84,110.42Z"/>
    <path class="cls-1" d="M150,38.98c-57.26,0-103.68,45.14-103.68,100.83s46.42,100.83,103.68,100.83,103.68-45.14,103.68-100.83c0-55.69-46.42-100.83-103.68-100.83ZM150,225.95c-52.76,0-95.52-40.85-95.52-91.25s42.77-91.25,95.52-91.25,95.52,40.85,95.52,91.25-42.77,91.25-95.52,91.25Z"/>
    <path class="cls-1" d="M150,47.95c-48.25,0-87.36,36.56-87.36,81.66s39.11,81.66,87.36,81.66,87.36-36.56,87.36-81.66-39.11-81.66-87.36-81.66ZM104.61,183.53c9.31-13.93,26.16-23.24,45.39-23.24s36.07,9.31,45.39,23.24c-3.85,2.47-7.96,4.63-12.28,6.45-8.7-7.32-20.33-11.79-33.11-11.79s-24.41,4.47-33.11,11.79c-4.32-1.82-8.43-3.98-12.28-6.45ZM150,142.4c-24.93,0-46.15,14.47-54.07,34.68-2.36-2.02-4.58-4.17-6.65-6.44,5.19-26.24,30.4-46.14,60.73-46.14s55.54,19.91,60.73,46.14c-2.07,2.27-4.29,4.42-6.65,6.44-7.92-20.21-29.14-34.68-54.07-34.68ZM150,52.92c43.6,0,78.94,32.16,78.94,71.83,0,9.41-1.99,18.4-5.61,26.63.85-4.1,1.3-8.33,1.3-12.66,0-37.51-33.41-67.91-74.63-67.91s-74.63,30.41-74.63,67.91c0,4.33.45,8.56,1.3,12.66-3.62-8.24-5.61-17.22-5.61-26.63,0-39.67,35.34-71.83,78.94-71.83ZM79.68,152.71c0-35.34,31.48-63.99,70.32-63.99s70.32,28.65,70.32,63.99c0,1.72-.08,3.42-.22,5.1-1.26,2.21-2.65,4.35-4.14,6.42-1.41-32.04-30.4-57.62-65.96-57.62s-64.54,25.58-65.96,57.62c-1.5-2.07-2.88-4.21-4.14-6.42-.15-1.68-.22-3.38-.22-5.1Z"/>
  </g>
</svg>